<svg id="Layer_1" data-name="Layer 1" xmlns="http://www.w3.org/2000/svg" width="238.7" height="66.4" viewBox="0 0 238.7 66.4"><defs><style>.cls-1,.cls-4,.cls-5,.cls-6{fill:#fff;}.cls-2{fill:#0075c9;}.cls-3{fill:#ff6b00;}.cls-4,.cls-5{isolation:isolate;}.cls-4{font-size:11.4px;font-family:Gotham-BoldItalic, Gotham;font-weight:700;font-style:italic;letter-spacing:-0.02em;}.cls-5{font-size:8.9px;font-family:SegoeUI-Semibold, Segoe UI;font-weight:600;}.cls-6{stroke:#fff;stroke-miterlimit:10;stroke-width:0.2px;}</style></defs><path class="cls-1" d="M162.4,13.9c-2.3-.2-4.5-.2-6.8-.2-8.3,0-13,3-14,9a5.7,5.7,0,0,0,1.3,5.3,12.6,12.6,0,0,0,4.7,2.5L153,32c2.7.8,4,1.5,3.9,2.2s-2,1.9-5.5,1.9a48.7,48.7,0,0,1-6.6-.4l-2.2-.3h-.8A1.8,1.8,0,0,0,140,37h0c-.2.9-.3,1.2-.2,1l-.2.9c-.4,2.2.4,3.4,2.1,3.8a46.4,46.4,0,0,0,9.1.6q12.6,0,14.1-9.3c.5-2.9-.6-5.2-3.4-6.8a31.8,31.8,0,0,0-7.9-2.6c-2.9-.7-4.3-1.4-4.1-2.1s1.9-1.6,5.3-1.6a45,45,0,0,1,6.1.3l1.9.3h.7a1.7,1.7,0,0,0,1.8-1.5,11.6,11.6,0,0,1,.4-1.8c.6-2.5-.6-3.8-3.3-4.3"/><path class="cls-1" d="M219.4,13.9c-2.3-.2-4.5-.2-6.8-.2-8.3,0-13,3-14,9a5.7,5.7,0,0,0,1.3,5.3,12.6,12.6,0,0,0,4.7,2.5L210,32c2.7.8,4,1.5,3.9,2.2s-2,1.9-5.5,1.9a48.7,48.7,0,0,1-6.6-.4l-2.2-.3h-.8A1.8,1.8,0,0,0,197,37h0c-.2.9-.2,1.2-.2,1l-.2.9c-.4,2.2.4,3.4,2.1,3.8a46.4,46.4,0,0,0,9.1.6q12.6,0,14.1-9.3c.5-2.9-.6-5.2-3.4-6.8a31.8,31.8,0,0,0-7.9-2.6c-2.9-.7-4.3-1.4-4.1-2.1s1.9-1.6,5.3-1.6a45,45,0,0,1,6.1.3l1.9.3h.7a1.7,1.7,0,0,0,1.8-1.5,11.6,11.6,0,0,1,.4-1.8c.5-2.5-.6-3.8-3.3-4.3"/><path class="cls-1" d="M59.8,43.1h2.6c2.4,0,3.8-1.2,4.2-3.7l2.9-17.8a39,39,0,0,1,5.9-.4c1.8,0,3.1.2,3.6.7s.9,1.7.6,3.5L77,41.4c-.2,1.1.3,1.7,1.4,1.7H81c2.4,0,3.8-1.2,4.2-3.7l2.5-14.9C88.9,17.5,85.3,14,77,14a73,73,0,0,0-11.4.9,4,4,0,0,0-3.4,3.3L58.4,41.3c-.1,1.2.3,1.8,1.4,1.8"/><path class="cls-1" d="M117.1,14h-2.6c-2.4,0-3.8,1.2-4.2,3.7l-2.9,17.8a39,39,0,0,1-5.9.4c-1.8,0-3.1-.2-3.6-.7s-.9-1.7-.6-3.5l2.6-16c.2-1.1-.3-1.7-1.4-1.7H95.9c-2.4,0-3.8,1.2-4.2,3.7L89.2,32.6Q87.4,43.1,100,43.1a73,73,0,0,0,11.4-.9,4,4,0,0,0,3.4-3.3l3.8-23.1q.2-1.8-1.5-1.8"/><path class="cls-1" d="M219.3,48.6h-1.1a1.6,1.6,0,0,0-1.7,1.3v.2l-1.2,7.3h-2.4a2,2,0,0,1-1.5-.3c-.3-.2-.4-.7-.3-1.4l1.1-6.6c.1-.5-.1-.7-.6-.7h-1.1a1.6,1.6,0,0,0-1.7,1.3v.2l-1,6.1c-.5,2.9,1,4.3,4.5,4.3A18.3,18.3,0,0,0,217,60a1.7,1.7,0,0,0,1.4-1.4l1.6-9.5a.8.8,0,0,0-.7-.5"/><path class="cls-1" d="M202.5,57.5h-3a2,2,0,0,1-1.5-.3c-.3-.2-.4-.7-.3-1.4l.6-3.8a.7.7,0,0,1,.7-.6h2.3a2,2,0,0,1,1.5.3c.3.2.4.7.3,1.4Zm-.6,3c3.1.2,3.6-1.6,3.8-2.6l.8-5.1c.5-2.9-1-4.3-4.5-4.3h-3.3a3.1,3.1,0,0,0-3.5,2.6l-.8,5.1c-.5,2.9,1,4.3,4.5,4.3Z"/><path class="cls-1" d="M228.9,54.7a3.7,3.7,0,0,1-1,2.3,3.5,3.5,0,0,1-2.4.6h-1.8l1-5.9,1.8-.2c1.3,0,2.1.2,2.4.7a5.7,5.7,0,0,1,0,2.6m-1.8-6.3a18.4,18.4,0,0,0-4.1.4,1.7,1.7,0,0,0-1.4,1.4l-2.3,14.1c-.1.5.1.7.6.7H221a1.6,1.6,0,0,0,1.7-1.3v-.2l.5-3h2.1c4,0,6.4-2,7-6,.4-2.2.1-3.8-.7-4.7a6.2,6.2,0,0,0-4.5-1.5"/><path class="cls-1" d="M188.4,22.7a2.6,2.6,0,0,1-1.3,1.9,19.8,19.8,0,0,1-3.3.8l-7.3,1.3c.5-2.4,1.2-4.1,2.3-4.9a8.9,8.9,0,0,1,5.3-1.3c2.5,0,4.6.7,4.3,2.2m-3.7-9c-4.9,0-8.7,1.2-11.4,3.5s-4.3,6-5.2,10.9-.3,8.8,1.6,11.2S175.1,43,180,43a48.4,48.4,0,0,0,8.5-.4c2-.3,3.2-1.4,3.4-3.2l.3-2.5c0-1.1-.5-1.7-1.4-1.6l-3.5.2-5.3.3a24.3,24.3,0,0,1-3.8-.3,3,3,0,0,1-2.3-2.4l9.4-1.6,4.2-.9a12.7,12.7,0,0,0,3.6-2,9,9,0,0,0,3.2-6c1.1-5.9-2.8-8.9-11.6-8.9"/><path class="cls-1" d="M179.2,57.4h-1.9q-1.7,0-2.1-.6a2.8,2.8,0,0,1-.2-2.2,5.2,5.2,0,0,1,1-2.7,4,4,0,0,1,2.4-.5h1.7Zm3.5-8.3a18.1,18.1,0,0,0-4-.4,7.8,7.8,0,0,0-4.9,1.4c-1.1.9-1.8,2.5-2.2,4.7s-.1,3.5.8,4.4,2.2,1.3,4.2,1.3h2.1a1.4,1.4,0,0,1-.6,1.2,4.1,4.1,0,0,1-2.2.4H172c-.4,0-.6.2-.7.7v.7c-.2.9.1,1.3.9,1.5a14.5,14.5,0,0,0,3.6.2,6.8,6.8,0,0,0,4.6-1.4c1-.9,1.6-2.4,2-4.5l1.4-8.8a1.1,1.1,0,0,0-1-1.2h0"/><path class="cls-1" d="M138.3,20.6a1.7,1.7,0,0,0,1.8-1.3,6.9,6.9,0,0,0,.4-2.5c0-3.9-6.5-3.7-6.5-3.7-8.4,0-13.2,3.6-14.3,10.8l-2.3,14.5a2.6,2.6,0,0,0,1.8,3.2h5.5l3.2-18.5a2.9,2.9,0,0,1,2.1-2.3,18.4,18.4,0,0,1,3.3-.3h5"/><path class="cls-1" d="M192.6,51.5c.4,0,.6-.1.7-.5a3.6,3.6,0,0,0,.2-1c0-1.6-2.7-1.5-2.7-1.5-3.5,0-5.4,1.5-5.9,4.4l-.9,6a1.3,1.3,0,0,0,.7,1.4H187l1.3-7.6a1.2,1.2,0,0,1,.9-1h3.4"/><path class="cls-1" d="M49.2,12.3C47.3,6,43,3.3,38.4,3.4c-9.5.2-26.4,11.3-33.2,21C1.5,29.7,0,37.1,2.7,43.6s8.4,11.7,12.6,14.8a34.8,34.8,0,0,0,7.5,4.3c4.2,1.8,8.8,3.5,14.6-.7s7.5-9.6,9.2-15.4a80,80,0,0,0,3.7-22.2c0-4.2.1-8.4-1.1-12.1"/><path class="cls-2" d="M34.5,31.7h-.2l-.8,4.7a32.5,32.5,0,0,1-4.4.3c-2.5,0-4.2-.4-4.9-1.3s-.8-1.9-.7-3.7H15.8c-.4,3.9.3,6.7,2,8.6s5.1,3.1,9.8,3.1h4.7a4.7,4.7,0,0,1-1.4,2.9c-.8.7-2.5,1-5,1L19.7,47,17,46.6h-.2a1.6,1.6,0,0,0-1.7,1.5h0l-.3,1.7c-.4,2,.3,3.1,2.1,3.4a45.2,45.2,0,0,0,8.2.5c4.8,0,8.3-1,10.6-3.1s3.7-5.5,4.5-10.3l1.4-8.7H34.5Z"/><path class="cls-3" d="M41.8,30.2l1.6-10a2.4,2.4,0,0,0-1.6-3h-.5a46,46,0,0,0-9.1-.9c-5,0-8.7,1.1-11.2,3.2s-4.2,5.7-5,10.7h7.6c.5-3,1.3-5.2,2.4-6.1S28.8,23,31.6,23l4,.2-1.2,7Z"/><polygon class="cls-1" points="164.9 65.8 164.1 65.7 166.8 46.5 167.6 46.6 164.9 65.8"/><text class="cls-4" transform="translate(54.3 58.3)">caring true passion</text><text class="cls-5" transform="translate(229.5 10.3)">R</text><path class="cls-6" d="M232.2,13.7a6.4,6.4,0,0,1-6.4-6.4,6.4,6.4,0,0,1,12.8,0,6.4,6.4,0,0,1-6.4,6.4Zm0-12.2a5.8,5.8,0,0,0-6,5.8,5.9,5.9,0,1,0,11.8.2V7.3a5.8,5.8,0,0,0-5.8-5.8Z"/></svg>